<svg width="455" height="219" viewBox="0 0 455 219" fill="none" xmlns="http://www.w3.org/2000/svg">
<g clip-path="url(#clip0)">
<path fill-rule="evenodd" clip-rule="evenodd" d="M446.964 2.09569C449.643 -1.51356 453.137 0.116426 454.301 2.5614C456.747 7.45135 451.739 11.177 446.848 8.26635C445.683 7.56778 444.984 4.77352 446.964 2.09569Z" fill="white"/>
<path fill-rule="evenodd" clip-rule="evenodd" d="M446.964 54.488C449.643 50.8788 453.137 52.5088 454.301 54.9538C456.747 59.8437 451.739 63.5694 446.848 60.6587C445.683 59.9601 444.984 57.2823 446.964 54.488Z" fill="white"/>
<path fill-rule="evenodd" clip-rule="evenodd" d="M446.964 106.88C449.643 103.271 453.137 104.901 454.301 107.346C456.747 112.236 451.739 115.962 446.848 113.051C445.683 112.469 444.984 109.675 446.964 106.88Z" fill="white"/>
<path fill-rule="evenodd" clip-rule="evenodd" d="M446.964 211.782C449.643 208.172 453.137 209.802 454.301 212.247C456.747 217.137 451.739 220.863 446.848 217.952C445.683 217.254 444.984 214.459 446.964 211.782Z" fill="white"/>
<path fill-rule="evenodd" clip-rule="evenodd" d="M446.964 158.341C449.643 154.732 453.137 156.362 454.301 158.807C456.747 163.697 451.739 167.423 446.848 164.512C445.683 163.813 444.984 161.019 446.964 158.341Z" fill="white"/>
<path fill-rule="evenodd" clip-rule="evenodd" d="M394.557 2.09569C397.236 -1.51356 400.73 0.116426 401.894 2.5614C404.34 7.45135 399.332 11.177 394.441 8.26635C393.16 7.56778 392.577 4.77352 394.557 2.09569Z" fill="white"/>
<path fill-rule="evenodd" clip-rule="evenodd" d="M394.557 54.488C397.236 50.8788 400.73 52.5088 401.894 54.9538C404.34 59.8437 399.332 63.5694 394.441 60.6587C393.16 59.9601 392.577 57.2823 394.557 54.488Z" fill="white"/>
<path fill-rule="evenodd" clip-rule="evenodd" d="M394.557 106.88C397.236 103.271 400.73 104.901 401.894 107.346C404.34 112.236 399.332 115.962 394.441 113.051C393.16 112.469 392.577 109.675 394.557 106.88Z" fill="white"/>
<path fill-rule="evenodd" clip-rule="evenodd" d="M394.557 211.782C397.236 208.172 400.73 209.802 401.894 212.247C404.34 217.137 399.332 220.863 394.441 217.952C393.16 217.254 392.577 214.459 394.557 211.782Z" fill="white"/>
<path fill-rule="evenodd" clip-rule="evenodd" d="M394.557 158.341C397.236 154.732 400.73 156.362 401.894 158.807C404.34 163.697 399.332 167.423 394.441 164.512C393.16 163.813 392.577 161.019 394.557 158.341Z" fill="white"/>
<path fill-rule="evenodd" clip-rule="evenodd" d="M343.198 2.09568C345.877 -1.51357 349.371 0.116419 350.535 2.56139C352.981 7.45135 347.973 11.177 343.082 8.26634C341.801 7.56777 341.219 4.77352 343.198 2.09568Z" fill="white"/>
<path fill-rule="evenodd" clip-rule="evenodd" d="M343.198 54.488C345.877 50.8788 349.371 52.5088 350.535 54.9537C352.981 59.8437 347.973 63.5694 343.082 60.6587C341.801 59.9601 341.219 57.2823 343.198 54.488Z" fill="white"/>
<path fill-rule="evenodd" clip-rule="evenodd" d="M343.198 106.88C345.877 103.271 349.371 104.901 350.535 107.346C352.981 112.236 347.973 115.962 343.082 113.051C341.801 112.469 341.219 109.675 343.198 106.88Z" fill="white"/>
<path fill-rule="evenodd" clip-rule="evenodd" d="M343.198 211.781C345.877 208.172 349.371 209.802 350.535 212.247C352.981 217.137 347.973 220.863 343.082 217.952C341.801 217.254 341.219 214.459 343.198 211.781Z" fill="white"/>
<path fill-rule="evenodd" clip-rule="evenodd" d="M343.198 158.341C345.877 154.732 349.371 156.362 350.535 158.807C352.981 163.697 347.973 167.423 343.082 164.512C341.801 163.813 341.219 161.019 343.198 158.341Z" fill="white"/>
<path fill-rule="evenodd" clip-rule="evenodd" d="M290.791 2.09568C293.47 -1.51357 296.964 0.116419 298.128 2.56139C300.574 7.45135 295.566 11.177 290.675 8.26634C289.394 7.56777 288.812 4.77352 290.791 2.09568Z" fill="white"/>
<path fill-rule="evenodd" clip-rule="evenodd" d="M290.791 54.488C293.47 50.8788 296.964 52.5088 298.128 54.9537C300.574 59.8437 295.566 63.5694 290.675 60.6587C289.394 59.9601 288.812 57.2823 290.791 54.488Z" fill="white"/>
<path fill-rule="evenodd" clip-rule="evenodd" d="M290.791 106.88C293.47 103.271 296.964 104.901 298.128 107.346C300.574 112.236 295.566 115.962 290.675 113.051C289.394 112.469 288.812 109.675 290.791 106.88Z" fill="white"/>
<path fill-rule="evenodd" clip-rule="evenodd" d="M290.791 211.781C293.47 208.172 296.964 209.802 298.128 212.247C300.574 217.137 295.566 220.863 290.675 217.952C289.394 217.254 288.812 214.459 290.791 211.781Z" fill="white"/>
<path fill-rule="evenodd" clip-rule="evenodd" d="M290.791 158.341C293.47 154.732 296.964 156.362 298.128 158.807C300.574 163.697 295.566 167.423 290.675 164.512C289.394 163.813 288.812 161.019 290.791 158.341Z" fill="white"/>
<path fill-rule="evenodd" clip-rule="evenodd" d="M238.384 2.09568C241.063 -1.51357 244.557 0.116419 245.721 2.56139C248.167 7.45135 243.159 11.177 238.268 8.26634C236.987 7.56777 236.405 4.77352 238.384 2.09568Z" fill="white"/>
<path fill-rule="evenodd" clip-rule="evenodd" d="M238.384 54.488C241.063 50.8788 244.557 52.5088 245.721 54.9537C248.167 59.8437 243.159 63.5694 238.268 60.6587C236.987 59.9601 236.405 57.2823 238.384 54.488Z" fill="white"/>
<path fill-rule="evenodd" clip-rule="evenodd" d="M238.384 106.88C241.063 103.271 244.557 104.901 245.721 107.346C248.167 112.236 243.159 115.962 238.268 113.051C236.987 112.469 236.405 109.675 238.384 106.88Z" fill="white"/>
<path fill-rule="evenodd" clip-rule="evenodd" d="M238.384 211.781C241.063 208.172 244.557 209.802 245.721 212.247C248.167 217.137 243.159 220.863 238.268 217.952C236.987 217.254 236.405 214.459 238.384 211.781Z" fill="white"/>
<path fill-rule="evenodd" clip-rule="evenodd" d="M238.384 158.341C241.063 154.732 244.557 156.362 245.721 158.807C248.167 163.697 243.159 167.423 238.268 164.512C236.987 163.813 236.405 161.019 238.384 158.341Z" fill="white"/>
<path fill-rule="evenodd" clip-rule="evenodd" d="M185.861 2.09568C188.539 -1.51357 192.033 0.116419 193.198 2.56139C195.643 7.45135 190.636 11.177 185.744 8.26634C184.58 7.56777 183.881 4.77352 185.861 2.09568Z" fill="white"/>
<path fill-rule="evenodd" clip-rule="evenodd" d="M185.861 54.488C188.539 50.8788 192.033 52.5088 193.198 54.9537C195.643 59.8437 190.636 63.5694 185.744 60.6587C184.58 59.9601 183.881 57.2823 185.861 54.488Z" fill="white"/>
<path fill-rule="evenodd" clip-rule="evenodd" d="M185.861 106.88C188.539 103.271 192.033 104.901 193.198 107.346C195.643 112.236 190.636 115.962 185.744 113.051C184.58 112.469 183.881 109.675 185.861 106.88Z" fill="white"/>
<path fill-rule="evenodd" clip-rule="evenodd" d="M185.861 211.781C188.539 208.172 192.033 209.802 193.198 212.247C195.643 217.137 190.636 220.863 185.744 217.952C184.58 217.254 183.881 214.459 185.861 211.781Z" fill="white"/>
<path fill-rule="evenodd" clip-rule="evenodd" d="M185.861 158.341C188.539 154.732 192.033 156.362 193.198 158.807C195.643 163.697 190.636 167.423 185.744 164.512C184.58 163.813 183.881 161.019 185.861 158.341Z" fill="white"/>
<path fill-rule="evenodd" clip-rule="evenodd" d="M134.502 2.09568C137.18 -1.51357 140.674 0.116411 141.839 2.56139C144.285 7.45134 139.277 11.177 134.385 8.26633C133.221 7.56777 132.522 4.77351 134.502 2.09568Z" fill="white"/>
<path fill-rule="evenodd" clip-rule="evenodd" d="M134.502 54.488C137.18 50.8788 140.674 52.5088 141.839 54.9537C144.285 59.8437 139.277 63.5694 134.385 60.6587C133.221 59.9601 132.522 57.2823 134.502 54.488Z" fill="white"/>
<path fill-rule="evenodd" clip-rule="evenodd" d="M134.502 106.88C137.18 103.271 140.674 104.901 141.839 107.346C144.285 112.236 139.277 115.962 134.385 113.051C133.221 112.469 132.522 109.675 134.502 106.88Z" fill="white"/>
<path fill-rule="evenodd" clip-rule="evenodd" d="M134.502 211.781C137.18 208.172 140.674 209.802 141.839 212.247C144.285 217.137 139.277 220.863 134.385 217.952C133.221 217.254 132.522 214.459 134.502 211.781Z" fill="white"/>
<path fill-rule="evenodd" clip-rule="evenodd" d="M134.502 158.341C137.18 154.732 140.674 156.362 141.839 158.807C144.285 163.697 139.277 167.423 134.385 164.512C133.221 163.813 132.522 161.019 134.502 158.341Z" fill="white"/>
<path fill-rule="evenodd" clip-rule="evenodd" d="M82.095 2.09568C84.7735 -1.51357 88.2673 0.116411 89.4319 2.56139C91.8776 7.45134 86.8698 11.177 81.9785 8.26633C80.6975 7.56777 80.1152 4.77351 82.095 2.09568Z" fill="white"/>
<path fill-rule="evenodd" clip-rule="evenodd" d="M82.095 54.488C84.7735 50.8788 88.2673 52.5088 89.4319 54.9537C91.8776 59.8437 86.8698 63.5694 81.9785 60.6587C80.6975 59.9601 80.1152 57.2823 82.095 54.488Z" fill="white"/>
<path fill-rule="evenodd" clip-rule="evenodd" d="M82.095 106.88C84.7735 103.271 88.2673 104.901 89.4319 107.346C91.8776 112.236 86.8698 115.962 81.9785 113.051C80.6975 112.469 80.1152 109.675 82.095 106.88Z" fill="white"/>
<path fill-rule="evenodd" clip-rule="evenodd" d="M82.095 211.781C84.7735 208.172 88.2673 209.802 89.4319 212.247C91.8776 217.137 86.8698 220.863 81.9785 217.952C80.6975 217.254 80.1152 214.459 82.095 211.781Z" fill="white"/>
<path fill-rule="evenodd" clip-rule="evenodd" d="M82.095 158.341C84.7735 154.732 88.2673 156.362 89.4319 158.807C91.8776 163.697 86.8698 167.423 81.9785 164.512C80.6975 163.813 80.1152 161.019 82.095 158.341Z" fill="white"/>
<path fill-rule="evenodd" clip-rule="evenodd" d="M29.688 2.09568C32.3665 -1.51357 35.8603 0.116411 37.0249 2.56139C39.4706 7.45134 34.4628 11.177 29.5715 8.26633C28.2905 7.56777 27.7081 4.77351 29.688 2.09568Z" fill="white"/>
<path fill-rule="evenodd" clip-rule="evenodd" d="M29.688 54.488C32.3665 50.8788 35.8603 52.5088 37.0249 54.9537C39.4706 59.8437 34.4628 63.5694 29.5715 60.6587C28.2905 59.9601 27.7081 57.2823 29.688 54.488Z" fill="white"/>
<path fill-rule="evenodd" clip-rule="evenodd" d="M29.688 106.88C32.3665 103.271 35.8603 104.901 37.0249 107.346C39.4706 112.236 34.4628 115.962 29.5715 113.051C28.2905 112.469 27.7081 109.675 29.688 106.88Z" fill="white"/>
<path fill-rule="evenodd" clip-rule="evenodd" d="M29.688 211.781C32.3665 208.172 35.8603 209.802 37.0249 212.247C39.4706 217.137 34.4628 220.863 29.5715 217.952C28.2905 217.254 27.7081 214.459 29.688 211.781Z" fill="white"/>
<path fill-rule="evenodd" clip-rule="evenodd" d="M29.688 158.341C32.3665 154.732 35.8603 156.362 37.0249 158.807C39.4706 163.697 34.4628 167.423 29.5715 164.512C28.2905 163.813 27.7081 161.019 29.688 158.341Z" fill="white"/>
</g>
<defs>
<clipPath id="clip0">
<rect width="219" height="479" fill="white" transform="translate(455) rotate(90)"/>
</clipPath>
</defs>
</svg>
