<svg width="479" height="219" viewBox="0 0 479 219" fill="none" xmlns="http://www.w3.org/2000/svg">
<g clip-path="url(#clip0)">
<path fill-rule="evenodd" clip-rule="evenodd" d="M470.964 2.09566C473.642 -1.51359 477.136 0.116396 478.301 2.56137C480.746 7.45132 475.739 11.177 470.847 8.26632C469.683 7.56775 468.984 4.77349 470.964 2.09566Z" fill="#F46A6A"/>
<path fill-rule="evenodd" clip-rule="evenodd" d="M470.964 54.4881C473.643 50.8788 477.137 52.5088 478.301 54.9538C480.747 59.8437 475.739 63.5694 470.848 60.6587C469.683 59.9601 468.984 57.2823 470.964 54.4881Z" fill="#F46A6A"/>
<path fill-rule="evenodd" clip-rule="evenodd" d="M470.964 106.88C473.643 103.271 477.137 104.901 478.301 107.346C480.747 112.236 475.739 115.962 470.848 113.051C469.683 112.469 468.984 109.675 470.964 106.88Z" fill="#F46A6A"/>
<path fill-rule="evenodd" clip-rule="evenodd" d="M470.964 211.782C473.643 208.172 477.137 209.802 478.301 212.247C480.747 217.137 475.739 220.863 470.848 217.952C469.683 217.254 468.984 214.459 470.964 211.782Z" fill="#F46A6A"/>
<path fill-rule="evenodd" clip-rule="evenodd" d="M470.964 158.341C473.643 154.732 477.137 156.362 478.301 158.807C480.747 163.697 475.739 167.423 470.848 164.512C469.683 163.813 468.984 161.019 470.964 158.341Z" fill="#F46A6A"/>
<path fill-rule="evenodd" clip-rule="evenodd" d="M418.557 2.09572C421.236 -1.51353 424.73 0.116457 425.894 2.56143C428.34 7.45138 423.332 11.1771 418.441 8.26638C417.16 7.56781 416.577 4.77355 418.557 2.09572Z" fill="#F46A6A"/>
<path fill-rule="evenodd" clip-rule="evenodd" d="M418.557 54.4881C421.236 50.8788 424.73 52.5088 425.894 54.9538C428.34 59.8437 423.332 63.5694 418.441 60.6587C417.16 59.9601 416.577 57.2823 418.557 54.4881Z" fill="#F46A6A"/>
<path fill-rule="evenodd" clip-rule="evenodd" d="M418.557 106.88C421.236 103.271 424.73 104.901 425.894 107.346C428.34 112.236 423.332 115.962 418.441 113.051C417.16 112.469 416.577 109.675 418.557 106.88Z" fill="#F46A6A"/>
<path fill-rule="evenodd" clip-rule="evenodd" d="M418.557 211.782C421.236 208.172 424.73 209.802 425.894 212.247C428.34 217.137 423.332 220.863 418.441 217.952C417.16 217.254 416.577 214.459 418.557 211.782Z" fill="#F46A6A"/>
<path fill-rule="evenodd" clip-rule="evenodd" d="M418.557 158.341C421.236 154.732 424.73 156.362 425.894 158.807C428.34 163.697 423.332 167.423 418.441 164.512C417.16 163.813 416.577 161.019 418.557 158.341Z" fill="#F46A6A"/>
<path fill-rule="evenodd" clip-rule="evenodd" d="M367.198 2.09572C369.877 -1.51353 373.371 0.116457 374.535 2.56143C376.981 7.45138 371.973 11.1771 367.082 8.26638C365.801 7.56781 365.219 4.77355 367.198 2.09572Z" fill="#F46A6A"/>
<path fill-rule="evenodd" clip-rule="evenodd" d="M367.198 54.4881C369.877 50.8788 373.371 52.5088 374.535 54.9538C376.981 59.8437 371.973 63.5694 367.082 60.6587C365.801 59.9601 365.219 57.2823 367.198 54.4881Z" fill="#F46A6A"/>
<path fill-rule="evenodd" clip-rule="evenodd" d="M367.198 106.88C369.877 103.271 373.371 104.901 374.535 107.346C376.981 112.236 371.973 115.962 367.082 113.051C365.801 112.469 365.219 109.675 367.198 106.88Z" fill="#F46A6A"/>
<path fill-rule="evenodd" clip-rule="evenodd" d="M367.198 211.782C369.877 208.172 373.371 209.802 374.535 212.247C376.981 217.137 371.973 220.863 367.082 217.952C365.801 217.254 365.219 214.459 367.198 211.782Z" fill="#F46A6A"/>
<path fill-rule="evenodd" clip-rule="evenodd" d="M367.198 158.341C369.877 154.732 373.371 156.362 374.535 158.807C376.981 163.697 371.973 167.423 367.082 164.512C365.801 163.813 365.219 161.019 367.198 158.341Z" fill="#F46A6A"/>
<path fill-rule="evenodd" clip-rule="evenodd" d="M314.791 2.09572C317.47 -1.51353 320.964 0.116457 322.128 2.56143C324.574 7.45138 319.566 11.1771 314.675 8.26638C313.394 7.56781 312.812 4.77355 314.791 2.09572Z" fill="#F46A6A"/>
<path fill-rule="evenodd" clip-rule="evenodd" d="M314.791 54.4881C317.47 50.8788 320.964 52.5088 322.128 54.9538C324.574 59.8437 319.566 63.5694 314.675 60.6587C313.394 59.9601 312.812 57.2823 314.791 54.4881Z" fill="#F46A6A"/>
<path fill-rule="evenodd" clip-rule="evenodd" d="M314.791 106.88C317.47 103.271 320.964 104.901 322.128 107.346C324.574 112.236 319.566 115.962 314.675 113.051C313.394 112.469 312.812 109.675 314.791 106.88Z" fill="#F46A6A"/>
<path fill-rule="evenodd" clip-rule="evenodd" d="M314.791 211.782C317.47 208.172 320.964 209.802 322.128 212.247C324.574 217.137 319.566 220.863 314.675 217.952C313.394 217.254 312.812 214.459 314.791 211.782Z" fill="#F46A6A"/>
<path fill-rule="evenodd" clip-rule="evenodd" d="M314.791 158.341C317.47 154.732 320.964 156.362 322.128 158.807C324.574 163.697 319.566 167.423 314.675 164.512C313.394 163.813 312.812 161.019 314.791 158.341Z" fill="#F46A6A"/>
<path fill-rule="evenodd" clip-rule="evenodd" d="M262.384 2.09572C265.063 -1.51353 268.557 0.116457 269.721 2.56143C272.167 7.45138 267.159 11.1771 262.268 8.26638C260.987 7.56781 260.405 4.77355 262.384 2.09572Z" fill="#F46A6A"/>
<path fill-rule="evenodd" clip-rule="evenodd" d="M262.384 54.4881C265.063 50.8788 268.557 52.5088 269.721 54.9538C272.167 59.8437 267.159 63.5694 262.268 60.6587C260.987 59.9601 260.405 57.2823 262.384 54.4881Z" fill="#F46A6A"/>
<path fill-rule="evenodd" clip-rule="evenodd" d="M262.384 106.88C265.063 103.271 268.557 104.901 269.721 107.346C272.167 112.236 267.159 115.962 262.268 113.051C260.987 112.469 260.405 109.675 262.384 106.88Z" fill="#F46A6A"/>
<path fill-rule="evenodd" clip-rule="evenodd" d="M262.384 211.782C265.063 208.172 268.557 209.802 269.721 212.247C272.167 217.137 267.159 220.863 262.268 217.952C260.987 217.254 260.405 214.459 262.384 211.782Z" fill="#F46A6A"/>
<path fill-rule="evenodd" clip-rule="evenodd" d="M262.384 158.341C265.063 154.732 268.557 156.362 269.721 158.807C272.167 163.697 267.159 167.423 262.268 164.512C260.987 163.813 260.405 161.019 262.384 158.341Z" fill="#F46A6A"/>
<path fill-rule="evenodd" clip-rule="evenodd" d="M209.861 2.09572C212.539 -1.51353 216.033 0.116457 217.198 2.56143C219.644 7.45138 214.636 11.1771 209.744 8.26638C208.58 7.56781 207.881 4.77355 209.861 2.09572Z" fill="#F46A6A"/>
<path fill-rule="evenodd" clip-rule="evenodd" d="M209.861 54.4881C212.539 50.8788 216.033 52.5088 217.198 54.9538C219.644 59.8437 214.636 63.5694 209.744 60.6587C208.58 59.9601 207.881 57.2823 209.861 54.4881Z" fill="#F46A6A"/>
<path fill-rule="evenodd" clip-rule="evenodd" d="M209.861 106.88C212.539 103.271 216.033 104.901 217.198 107.346C219.644 112.236 214.636 115.962 209.744 113.051C208.58 112.469 207.881 109.675 209.861 106.88Z" fill="#F46A6A"/>
<path fill-rule="evenodd" clip-rule="evenodd" d="M209.861 211.782C212.539 208.172 216.033 209.802 217.198 212.247C219.644 217.137 214.636 220.863 209.744 217.952C208.58 217.254 207.881 214.459 209.861 211.782Z" fill="#F46A6A"/>
<path fill-rule="evenodd" clip-rule="evenodd" d="M209.861 158.341C212.539 154.732 216.033 156.362 217.198 158.807C219.644 163.697 214.636 167.423 209.744 164.512C208.58 163.813 207.881 161.019 209.861 158.341Z" fill="#F46A6A"/>
<path fill-rule="evenodd" clip-rule="evenodd" d="M158.502 2.09572C161.181 -1.51353 164.674 0.116457 165.839 2.56143C168.285 7.45138 163.277 11.1771 158.386 8.26638C157.221 7.56781 156.522 4.77355 158.502 2.09572Z" fill="#F46A6A"/>
<path fill-rule="evenodd" clip-rule="evenodd" d="M158.502 54.4881C161.181 50.8788 164.674 52.5088 165.839 54.9538C168.285 59.8437 163.277 63.5694 158.386 60.6587C157.221 59.9601 156.522 57.2823 158.502 54.4881Z" fill="#F46A6A"/>
<path fill-rule="evenodd" clip-rule="evenodd" d="M158.502 106.88C161.181 103.271 164.674 104.901 165.839 107.346C168.285 112.236 163.277 115.962 158.386 113.051C157.221 112.469 156.522 109.675 158.502 106.88Z" fill="#F46A6A"/>
<path fill-rule="evenodd" clip-rule="evenodd" d="M158.502 211.782C161.181 208.172 164.674 209.802 165.839 212.247C168.285 217.137 163.277 220.863 158.386 217.952C157.221 217.254 156.522 214.459 158.502 211.782Z" fill="#F46A6A"/>
<path fill-rule="evenodd" clip-rule="evenodd" d="M158.502 158.341C161.181 154.732 164.674 156.362 165.839 158.807C168.285 163.697 163.277 167.423 158.386 164.512C157.221 163.813 156.522 161.019 158.502 158.341Z" fill="#F46A6A"/>
<path fill-rule="evenodd" clip-rule="evenodd" d="M106.095 2.09572C108.774 -1.51353 112.267 0.116457 113.432 2.56143C115.878 7.45138 110.87 11.1771 105.979 8.26638C104.698 7.56781 104.115 4.77355 106.095 2.09572Z" fill="#F46A6A"/>
<path fill-rule="evenodd" clip-rule="evenodd" d="M106.095 54.4881C108.774 50.8788 112.267 52.5088 113.432 54.9538C115.878 59.8437 110.87 63.5694 105.979 60.6587C104.698 59.9601 104.115 57.2823 106.095 54.4881Z" fill="#F46A6A"/>
<path fill-rule="evenodd" clip-rule="evenodd" d="M106.095 106.88C108.774 103.271 112.267 104.901 113.432 107.346C115.878 112.236 110.87 115.962 105.979 113.051C104.698 112.469 104.115 109.675 106.095 106.88Z" fill="#F46A6A"/>
<path fill-rule="evenodd" clip-rule="evenodd" d="M106.095 211.782C108.774 208.172 112.267 209.802 113.432 212.247C115.878 217.137 110.87 220.863 105.979 217.952C104.698 217.254 104.115 214.459 106.095 211.782Z" fill="#F46A6A"/>
<path fill-rule="evenodd" clip-rule="evenodd" d="M106.095 158.341C108.774 154.732 112.267 156.362 113.432 158.807C115.878 163.697 110.87 167.423 105.979 164.512C104.698 163.813 104.115 161.019 106.095 158.341Z" fill="#F46A6A"/>
<path fill-rule="evenodd" clip-rule="evenodd" d="M53.6881 2.09572C56.3666 -1.51353 59.8604 0.116457 61.025 2.56143C63.4707 7.45138 58.4629 11.1771 53.5716 8.26638C52.2906 7.56781 51.7082 4.77355 53.6881 2.09572Z" fill="#F46A6A"/>
<path fill-rule="evenodd" clip-rule="evenodd" d="M53.6881 54.4881C56.3666 50.8788 59.8604 52.5088 61.025 54.9538C63.4707 59.8437 58.4629 63.5694 53.5716 60.6587C52.2906 59.9601 51.7082 57.2823 53.6881 54.4881Z" fill="#F46A6A"/>
<path fill-rule="evenodd" clip-rule="evenodd" d="M53.6881 106.88C56.3666 103.271 59.8604 104.901 61.025 107.346C63.4707 112.236 58.4629 115.962 53.5716 113.051C52.2906 112.469 51.7082 109.675 53.6881 106.88Z" fill="#F46A6A"/>
<path fill-rule="evenodd" clip-rule="evenodd" d="M53.6881 211.782C56.3666 208.172 59.8604 209.802 61.025 212.247C63.4707 217.137 58.4629 220.863 53.5716 217.952C52.2906 217.254 51.7082 214.459 53.6881 211.782Z" fill="#F46A6A"/>
<path fill-rule="evenodd" clip-rule="evenodd" d="M53.6881 158.341C56.3666 154.732 59.8604 156.362 61.025 158.807C63.4707 163.697 58.4629 167.423 53.5716 164.512C52.2906 163.813 51.7082 161.019 53.6881 158.341Z" fill="#F46A6A"/>
<path fill-rule="evenodd" clip-rule="evenodd" d="M1.28106 2.09572C3.95963 -1.51353 7.45343 0.116457 8.61803 2.56143C11.0637 7.45138 6.05593 11.1771 1.16463 8.26638C-0.116421 7.56781 -0.698747 4.77355 1.28106 2.09572Z" fill="#F46A6A"/>
<path fill-rule="evenodd" clip-rule="evenodd" d="M1.28106 54.4881C3.95963 50.8788 7.45343 52.5088 8.61803 54.9538C11.0637 59.8437 6.05593 63.5694 1.16463 60.6587C-0.116421 59.9601 -0.698747 57.2823 1.28106 54.4881Z" fill="#F46A6A"/>
<path fill-rule="evenodd" clip-rule="evenodd" d="M1.28106 106.88C3.95963 103.271 7.45343 104.901 8.61803 107.346C11.0637 112.236 6.05593 115.962 1.16463 113.051C-0.116421 112.469 -0.698747 109.675 1.28106 106.88Z" fill="#F46A6A"/>
<path fill-rule="evenodd" clip-rule="evenodd" d="M1.28106 211.782C3.95963 208.172 7.45343 209.802 8.61803 212.247C11.0637 217.137 6.05593 220.863 1.16463 217.952C-0.116421 217.254 -0.698747 214.459 1.28106 211.782Z" fill="#F46A6A"/>
<path fill-rule="evenodd" clip-rule="evenodd" d="M1.28106 158.341C3.95963 154.732 7.45343 156.362 8.61803 158.807C11.0637 163.697 6.05593 167.423 1.16463 164.512C-0.116421 163.813 -0.698747 161.019 1.28106 158.341Z" fill="#F46A6A"/>
</g>
<defs>
<clipPath id="clip0">
<rect width="219" height="479" fill="white" transform="translate(479) rotate(90)"/>
</clipPath>
</defs>
</svg>
