<svg width="285" height="92" viewBox="0 0 285 92" fill="none" xmlns="http://www.w3.org/2000/svg">
<path d="M249.754 0H238.877C245.072 14.1433 248.514 29.797 248.514 46.2746C248.514 62.4776 245.072 77.994 239.014 92H267.79C277.841 60.6925 269.167 26.6388 249.754 0Z" fill="#F46A6A"/>
<path d="M238.877 46.2746C238.877 29.6597 235.022 14.006 228.138 0H61.2681C46.6739 24.5791 39.9275 56.2985 44.7464 92H228.551C235.159 78.1313 238.877 62.6149 238.877 46.2746ZM101.333 50.2567C101.333 56.5731 99.6812 61.2418 96.5145 64.5373C93.3478 67.6955 88.6667 69.3433 82.471 69.3433C76.2754 69.3433 71.5942 67.6955 68.2899 64.5373C64.9855 61.3791 63.471 56.5731 63.471 50.2567V27.3254C63.471 24.5791 64.8478 23.206 67.6015 23.206C70.3551 23.206 71.7319 24.5791 71.7319 27.3254V50.1194C71.7319 54.1015 72.6957 57.1224 74.4855 59.1821C76.2754 61.2418 79.029 62.203 82.6087 62.203C89.7681 62.203 93.3478 58.2209 93.3478 50.1194V27.3254C93.3478 24.5791 94.7247 23.206 97.4783 23.206C100.094 23.206 101.471 24.5791 101.471 27.3254V50.2567H101.333ZM157.92 43.1164L148.696 65.7731C147.87 67.9702 146.217 69.0687 144.152 69.0687C141.949 69.0687 140.435 67.9702 139.609 65.7731L133.138 55.7493L126.667 65.7731C125.841 67.9702 124.326 69.206 122.123 69.206C119.92 69.206 118.406 68.1075 117.58 65.9104L108.355 43.1164C107.804 41.606 107.804 40.3702 108.493 39.409C109.043 38.4478 110.145 37.8985 111.797 37.8985C112.761 37.8985 113.449 38.1731 114.138 38.5851C114.688 38.997 115.239 39.8209 115.652 41.0567L122.536 59.3194L129.696 46.8239C130.384 45.0388 131.623 44.2149 133.275 44.2149C135.065 44.2149 136.304 45.0388 136.855 46.8239L144.015 59.4567L151.036 40.7821C151.449 39.6836 152 38.8597 152.688 38.4478C153.377 38.0358 154.065 37.7612 154.891 37.7612C156.406 37.7612 157.37 38.3105 157.92 39.409C158.471 40.5075 158.471 41.7433 157.92 43.1164ZM202.804 50.2567C202.804 56.5731 201.152 61.2418 197.986 64.5373C194.819 67.6955 190.138 69.3433 183.942 69.3433C177.746 69.3433 173.065 67.6955 169.761 64.5373C166.457 61.3791 164.942 56.5731 164.942 50.2567V27.3254C164.942 24.5791 166.319 23.206 169.072 23.206C171.826 23.206 173.203 24.5791 173.203 27.3254V50.1194C173.203 54.1015 174.167 57.1224 175.957 59.1821C177.746 61.2418 180.5 62.203 184.08 62.203C191.239 62.203 194.819 58.2209 194.819 50.1194V27.3254C194.819 24.5791 196.196 23.206 198.949 23.206C201.565 23.206 202.942 24.5791 202.942 27.3254V50.2567H202.804Z" fill="#F46A6A"/>
<path d="M27.2608 46.2746C27.2608 29.6597 31.1159 14.006 38 0H27.2608C21.0652 14.1433 17.6232 29.797 17.6232 46.2746C17.6232 62.4776 21.0652 77.994 27.1232 92H37.7246C30.9782 78.1313 27.2608 62.6149 27.2608 46.2746Z" fill="#E6E6E6"/>
<path d="M238.877 46.2746C238.877 62.6149 235.159 78.1313 228.413 92H239.015C245.072 77.994 248.515 62.4776 248.515 46.2746C248.515 29.797 245.072 14.1433 238.877 0H228.138C235.022 14.006 238.877 29.6597 238.877 46.2746Z" fill="#E6E6E6"/>
<path d="M97.3404 23.2061C94.5868 23.2061 93.21 24.5792 93.21 27.3255V50.1195C93.21 58.221 89.6303 62.2031 82.4709 62.2031C78.8912 62.2031 76.2752 61.2419 74.3477 59.1822C72.5578 57.1225 71.5941 54.1016 71.5941 50.1195V27.3255C71.5941 24.5792 70.2173 23.2061 67.4636 23.2061C64.71 23.2061 63.3332 24.5792 63.3332 27.3255V50.1195C63.3332 56.4359 64.9854 61.1046 68.152 64.4001C71.4564 67.5583 76.1375 69.2061 82.3332 69.2061C88.5289 69.2061 93.21 67.5583 96.3767 64.4001C99.5433 61.2419 101.196 56.4359 101.196 50.1195V27.3255C101.333 24.5792 99.9564 23.2061 97.3404 23.2061Z" fill="#E6E6E6"/>
<path d="M155.029 37.7607C154.203 37.7607 153.514 38.0354 152.826 38.4473C152.138 38.8592 151.587 39.6831 151.174 40.7816L144.152 59.4563L136.993 46.8234C136.304 45.0383 135.203 44.2145 133.413 44.2145C131.623 44.2145 130.522 45.0383 129.833 46.8234L122.536 59.3189L115.514 40.9189C115.101 39.6831 114.551 38.8592 114 38.4473C113.449 38.0354 112.623 37.7607 111.659 37.7607C110.145 37.7607 109.043 38.31 108.355 39.2712C107.804 40.2324 107.667 41.6055 108.217 42.9786L117.442 65.7727C118.268 67.9697 119.782 69.0682 121.985 69.0682C124.188 69.0682 125.703 67.9697 126.529 65.6354L132.862 55.7488L139.333 65.7727C140.159 67.9697 141.674 69.0682 143.877 69.0682C146.08 69.0682 147.594 67.9697 148.42 65.7727L157.645 42.9786C158.195 41.6055 158.195 40.3697 157.782 39.2712C157.645 38.31 156.543 37.7607 155.029 37.7607Z" fill="#E6E6E6"/>
<path d="M198.674 23.2061C195.92 23.2061 194.543 24.5792 194.543 27.3255V50.1195C194.543 58.221 190.964 62.2031 183.804 62.2031C180.224 62.2031 177.609 61.2419 175.681 59.1822C173.891 57.1225 172.927 54.1016 172.927 50.1195V27.3255C172.927 24.5792 171.551 23.2061 168.797 23.2061C166.043 23.2061 164.667 24.5792 164.667 27.3255V50.1195C164.667 56.4359 166.319 61.1046 169.485 64.4001C172.79 67.5583 177.471 69.2061 183.666 69.2061C189.862 69.2061 194.543 67.5583 197.71 64.4001C200.877 61.2419 202.529 56.4359 202.529 50.1195V27.3255C202.804 24.5792 201.427 23.2061 198.674 23.2061Z" fill="#E6E6E6"/>
</svg>
