<svg width="136" height="44" viewBox="0 0 136 44" fill="none" xmlns="http://www.w3.org/2000/svg">
<path d="M119.181 0H113.99C116.947 6.76418 118.589 14.2507 118.589 22.1313C118.589 29.8806 116.947 37.3015 114.056 44H127.787C132.584 29.0269 128.444 12.7403 119.181 0Z" fill="#F46A6A"/>
<path d="M113.99 22.1313C113.99 14.1851 112.151 6.69851 108.866 0H29.2367C22.2725 11.7552 19.0532 26.9254 21.3527 44H109.063C112.216 37.3672 113.99 29.9463 113.99 22.1313ZM48.3556 24.0358C48.3556 27.0567 47.5672 29.2896 46.0561 30.8657C44.545 32.3761 42.3111 33.1642 39.3546 33.1642C36.3981 33.1642 34.1643 32.3761 32.5875 30.8657C31.0107 29.3552 30.288 27.0567 30.288 24.0358V13.0687C30.288 11.7552 30.945 11.0985 32.259 11.0985C33.573 11.0985 34.23 11.7552 34.23 13.0687V23.9701C34.23 25.8746 34.6899 27.3194 35.544 28.3045C36.3981 29.2896 37.7121 29.7493 39.4203 29.7493C42.8368 29.7493 44.545 27.8448 44.545 23.9701V13.0687C44.545 11.7552 45.202 11.0985 46.516 11.0985C47.7643 11.0985 48.4213 11.7552 48.4213 13.0687V24.0358H48.3556ZM75.3585 20.6209L70.9566 31.4567C70.5624 32.5075 69.7739 33.0328 68.7884 33.0328C67.7372 33.0328 67.0145 32.5075 66.6203 31.4567L63.5324 26.6627L60.4445 31.4567C60.0503 32.5075 59.3276 33.0985 58.2764 33.0985C57.2252 33.0985 56.5025 32.5731 56.1082 31.5224L51.7063 20.6209C51.4435 19.8985 51.4435 19.3075 51.772 18.8478C52.0348 18.3881 52.5604 18.1254 53.3488 18.1254C53.8087 18.1254 54.1372 18.2567 54.4657 18.4537C54.7285 18.6507 54.9913 19.0448 55.1884 19.6358L58.4735 28.3701L61.8899 22.394C62.2184 21.5403 62.8097 21.1463 63.5981 21.1463C64.4522 21.1463 65.0435 21.5403 65.3063 22.394L68.7227 28.4358L72.0735 19.5045C72.2706 18.9791 72.5334 18.5851 72.8619 18.3881C73.1904 18.191 73.5189 18.0597 73.9131 18.0597C74.6358 18.0597 75.0957 18.3224 75.3585 18.8478C75.6213 19.3731 75.6213 19.9642 75.3585 20.6209ZM96.7768 24.0358C96.7768 27.0567 95.9884 29.2896 94.4773 30.8657C92.9662 32.3761 90.7324 33.1642 87.7759 33.1642C84.8194 33.1642 82.5855 32.3761 81.0087 30.8657C79.4319 29.3552 78.7092 27.0567 78.7092 24.0358V13.0687C78.7092 11.7552 79.3662 11.0985 80.6802 11.0985C81.9942 11.0985 82.6512 11.7552 82.6512 13.0687V23.9701C82.6512 25.8746 83.1111 27.3194 83.9653 28.3045C84.8194 29.2896 86.1334 29.7493 87.8416 29.7493C91.258 29.7493 92.9662 27.8448 92.9662 23.9701V13.0687C92.9662 11.7552 93.6232 11.0985 94.9372 11.0985C96.1855 11.0985 96.8425 11.7552 96.8425 13.0687V24.0358H96.7768Z" fill="#F46A6A"/>
<path d="M13.0087 22.1313C13.0087 14.1851 14.8483 6.69851 18.1333 0H13.0087C10.0522 6.76418 8.40967 14.2507 8.40967 22.1313C8.40967 29.8806 10.0522 37.3015 12.943 44H18.0019C14.7826 37.3672 13.0087 29.9463 13.0087 22.1313Z" fill="#3F3F42"/>
<path d="M113.99 22.1313C113.99 29.9463 112.216 37.3672 108.997 44H114.056C116.947 37.3015 118.589 29.8806 118.589 22.1313C118.589 14.2507 116.947 6.76418 113.99 0H108.866C112.151 6.69851 113.99 14.1851 113.99 22.1313Z" fill="#3F3F42"/>
<path d="M46.4502 11.0985C45.1362 11.0985 44.4792 11.7552 44.4792 13.0687V23.9702C44.4792 27.8448 42.771 29.7493 39.3545 29.7493C37.6463 29.7493 36.398 29.2896 35.4782 28.3045C34.6241 27.3194 34.1642 25.8746 34.1642 23.9702V13.0687C34.1642 11.7552 33.5072 11.0985 32.1932 11.0985C30.8792 11.0985 30.2222 11.7552 30.2222 13.0687V23.9702C30.2222 26.991 31.0106 29.2239 32.5217 30.8C34.0985 32.3105 36.3323 33.0985 39.2888 33.0985C42.2454 33.0985 44.4792 32.3105 45.9903 30.8C47.5014 29.2896 48.2898 26.991 48.2898 23.9702V13.0687C48.3555 11.7552 47.6985 11.0985 46.4502 11.0985Z" fill="#3F3F42" stroke="#3D3D3D" stroke-width="0.5724" stroke-miterlimit="10"/>
<path d="M73.9787 18.0597C73.5845 18.0597 73.256 18.191 72.9275 18.3881C72.599 18.5851 72.3362 18.9791 72.1391 19.5045L68.7884 28.4358L65.372 22.394C65.0435 21.5403 64.5179 21.1463 63.6638 21.1463C62.8097 21.1463 62.284 21.5403 61.9555 22.394L58.4734 28.3701L55.1227 19.5701C54.9256 18.9791 54.6628 18.5851 54.4 18.3881C54.1372 18.191 53.743 18.0597 53.2831 18.0597C52.5604 18.0597 52.0348 18.3224 51.7063 18.7821C51.4435 19.2418 51.3778 19.8985 51.6406 20.5552L56.0425 31.4567C56.4367 32.5075 57.1594 33.0328 58.2106 33.0328C59.2618 33.0328 59.9845 32.5075 60.3787 31.391L63.401 26.6627L66.4889 31.4567C66.8831 32.5075 67.6058 33.0328 68.657 33.0328C69.7082 33.0328 70.4309 32.5075 70.8251 31.4567L75.227 20.5552C75.4898 19.8985 75.4898 19.3075 75.2927 18.7821C75.227 18.3224 74.7014 18.0597 73.9787 18.0597Z" fill="#3F3F42" stroke="#3D3D3D" stroke-width="0.5724" stroke-miterlimit="10"/>
<path d="M94.8058 11.0985C93.4918 11.0985 92.8348 11.7552 92.8348 13.0687V23.9702C92.8348 27.8448 91.1265 29.7493 87.7101 29.7493C86.0019 29.7493 84.7536 29.2896 83.8338 28.3045C82.9797 27.3194 82.5198 25.8746 82.5198 23.9702V13.0687C82.5198 11.7552 81.8628 11.0985 80.5488 11.0985C79.2348 11.0985 78.5778 11.7552 78.5778 13.0687V23.9702C78.5778 26.991 79.3662 29.2239 80.8773 30.8C82.4541 32.3105 84.6879 33.0985 87.6444 33.0985C90.6009 33.0985 92.8348 32.3105 94.3459 30.8C95.857 29.2896 96.6454 26.991 96.6454 23.9702V13.0687C96.7768 11.7552 96.1198 11.0985 94.8058 11.0985Z" fill="#3F3F42" stroke="#3D3D3D" stroke-width="0.5724" stroke-miterlimit="10"/>
</svg>
