<svg width="572" height="558" viewBox="0 0 572 558" fill="none" xmlns="http://www.w3.org/2000/svg">
<path fill-rule="evenodd" clip-rule="evenodd" d="M409.078 525.623C634.261 428.931 596.466 214.624 473.234 111.592C235.982 -79.2555 -33.3488 143.611 64.7918 450.172C91.7884 531.647 236.3 601.075 409.078 525.623Z" fill="#FFCB39"/>
<path d="M149.593 318.925C135.301 318.925 124.502 315.12 116.879 307.829C109.257 300.537 105.763 289.442 105.763 274.859V222.55C105.763 216.209 108.939 213.039 115.291 213.039C121.644 213.039 124.82 216.209 124.82 222.55V275.176C124.82 284.369 127.043 291.344 131.172 296.099C135.301 300.854 141.653 303.074 149.911 303.074C166.426 303.074 174.684 293.88 174.684 275.176V222.55C174.684 216.209 177.86 213.039 184.212 213.039C190.247 213.039 193.423 216.209 193.423 222.55V275.176C193.423 289.759 189.611 300.537 182.306 308.146C174.684 315.437 163.885 318.925 149.593 318.925Z" fill="#3F3F42" stroke="#3D3D3D" stroke-width="0.5724" stroke-miterlimit="10"/>
<path d="M241.064 318.925C235.982 318.925 232.488 316.389 230.583 311.316L209.303 258.691C208.033 255.203 208.033 252.35 209.621 250.131C210.891 247.912 213.432 246.644 217.243 246.644C219.467 246.644 221.055 247.278 222.643 248.229C223.913 249.18 225.183 251.082 226.136 253.935L242.334 296.416L258.85 267.567C260.438 263.446 263.296 261.544 267.108 261.544C271.236 261.544 274.095 263.446 275.365 267.567L291.881 296.733L308.079 253.618C309.032 251.082 310.302 249.18 311.89 248.229C313.478 247.278 315.066 246.644 316.972 246.644C320.466 246.644 322.689 247.912 323.959 250.448C324.912 252.984 324.912 255.837 323.642 259.008L302.362 311.633C300.456 316.706 296.645 319.242 291.881 319.242C286.799 319.242 283.306 316.706 281.4 311.633L266.472 288.491L251.862 311.316C249.957 316.072 246.146 318.925 241.064 318.925Z" fill="#3F3F42" stroke="#3D3D3D" stroke-width="0.5724" stroke-miterlimit="10"/>
<path d="M383.669 318.925C369.377 318.925 358.578 315.12 350.956 307.829C343.333 300.537 339.84 289.442 339.84 274.859V222.55C339.84 216.209 343.016 213.039 349.368 213.039C355.72 213.039 358.896 216.209 358.896 222.55V275.176C358.896 284.369 361.119 291.344 365.248 296.099C369.377 300.854 375.729 303.074 383.987 303.074C400.503 303.074 408.76 293.88 408.76 275.176V222.55C408.76 216.209 411.936 213.039 418.288 213.039C424.323 213.039 427.499 216.209 427.499 222.55V275.176C427.499 289.759 423.688 300.537 416.383 308.146C408.76 315.437 397.962 318.925 383.669 318.925Z" fill="#3F3F42" stroke="#3D3D3D" stroke-width="0.5724" stroke-miterlimit="10"/>
<path d="M266.472 0C119.42 0 0 119.2 0 265.982C0 412.763 119.42 531.964 266.472 531.964C413.524 531.964 532.945 412.763 532.945 265.982C532.945 119.2 413.524 0 266.472 0ZM510.394 265.982C510.394 400.399 401.138 509.455 266.472 509.455C131.807 509.455 22.5501 400.399 22.5501 265.982C22.5501 131.564 131.807 22.5086 266.472 22.5086C401.138 22.5086 510.394 131.564 510.394 265.982Z" fill="#3F3F42"/>
</svg>
