<svg width="219" height="479" viewBox="0 0 219 479" fill="none" xmlns="http://www.w3.org/2000/svg">
<g clip-path="url(#clip0)">
<path fill-rule="evenodd" clip-rule="evenodd" d="M2.09564 8.03634C-1.51361 5.35776 0.116373 1.86396 2.56135 0.699358C7.4513 -1.7463 11.177 3.26148 8.26629 8.1528C7.56773 9.3174 4.77347 10.0162 2.09564 8.03634Z" fill="#F46A6A"/>
<path fill-rule="evenodd" clip-rule="evenodd" d="M54.488 8.03573C50.8788 5.35715 52.5088 1.86335 54.9538 0.698748C59.8437 -1.74691 63.5694 3.26087 60.6587 8.15219C59.9601 9.31679 57.2823 10.0155 54.488 8.03573Z" fill="#F46A6A"/>
<path fill-rule="evenodd" clip-rule="evenodd" d="M106.88 8.03573C103.271 5.35715 104.901 1.86335 107.346 0.698748C112.236 -1.74691 115.962 3.26087 113.051 8.15219C112.469 9.31679 109.675 10.0155 106.88 8.03573Z" fill="#F46A6A"/>
<path fill-rule="evenodd" clip-rule="evenodd" d="M211.782 8.03573C208.172 5.35715 209.802 1.86335 212.247 0.698748C217.137 -1.74691 220.863 3.26087 217.952 8.15219C217.254 9.31679 214.459 10.0155 211.782 8.03573Z" fill="#F46A6A"/>
<path fill-rule="evenodd" clip-rule="evenodd" d="M158.341 8.03573C154.732 5.35715 156.362 1.86335 158.807 0.698748C163.697 -1.74691 167.423 3.26087 164.512 8.15219C163.813 9.31679 161.019 10.0155 158.341 8.03573Z" fill="#F46A6A"/>
<path fill-rule="evenodd" clip-rule="evenodd" d="M2.0957 60.4427C-1.51355 57.7641 0.116438 54.2703 2.56141 53.1057C7.45137 50.6601 11.177 55.6679 8.26636 60.5592C7.56779 61.8402 4.77353 62.4225 2.0957 60.4427Z" fill="#F46A6A"/>
<path fill-rule="evenodd" clip-rule="evenodd" d="M54.488 60.4427C50.8788 57.7641 52.5088 54.2703 54.9538 53.1057C59.8437 50.6601 63.5694 55.6679 60.6587 60.5592C59.9601 61.8402 57.2823 62.4225 54.488 60.4427Z" fill="#F46A6A"/>
<path fill-rule="evenodd" clip-rule="evenodd" d="M106.88 60.4427C103.271 57.7641 104.901 54.2703 107.346 53.1057C112.236 50.6601 115.962 55.6679 113.051 60.5592C112.469 61.8402 109.675 62.4225 106.88 60.4427Z" fill="#F46A6A"/>
<path fill-rule="evenodd" clip-rule="evenodd" d="M211.781 60.4427C208.172 57.7641 209.802 54.2703 212.247 53.1057C217.137 50.6601 220.863 55.6679 217.952 60.5592C217.254 61.8402 214.459 62.4225 211.781 60.4427Z" fill="#F46A6A"/>
<path fill-rule="evenodd" clip-rule="evenodd" d="M158.341 60.4427C154.732 57.7641 156.362 54.2703 158.807 53.1057C163.697 50.6601 167.423 55.6679 164.512 60.5592C163.813 61.8402 161.019 62.4225 158.341 60.4427Z" fill="#F46A6A"/>
<path fill-rule="evenodd" clip-rule="evenodd" d="M2.0957 111.802C-1.51355 109.123 0.116438 105.629 2.56141 104.465C7.45137 102.019 11.177 107.027 8.26636 111.918C7.56779 113.199 4.77353 113.781 2.0957 111.802Z" fill="#F46A6A"/>
<path fill-rule="evenodd" clip-rule="evenodd" d="M54.488 111.802C50.8788 109.123 52.5088 105.629 54.9538 104.465C59.8437 102.019 63.5694 107.027 60.6587 111.918C59.9601 113.199 57.2823 113.781 54.488 111.802Z" fill="#F46A6A"/>
<path fill-rule="evenodd" clip-rule="evenodd" d="M106.88 111.802C103.271 109.123 104.901 105.629 107.346 104.465C112.236 102.019 115.962 107.027 113.051 111.918C112.469 113.199 109.675 113.781 106.88 111.802Z" fill="#F46A6A"/>
<path fill-rule="evenodd" clip-rule="evenodd" d="M211.781 111.802C208.172 109.123 209.802 105.629 212.247 104.465C217.137 102.019 220.863 107.027 217.952 111.918C217.254 113.199 214.459 113.781 211.781 111.802Z" fill="#F46A6A"/>
<path fill-rule="evenodd" clip-rule="evenodd" d="M158.341 111.802C154.732 109.123 156.362 105.629 158.807 104.465C163.697 102.019 167.423 107.027 164.512 111.918C163.813 113.199 161.019 113.781 158.341 111.802Z" fill="#F46A6A"/>
<path fill-rule="evenodd" clip-rule="evenodd" d="M2.0957 164.209C-1.51355 161.53 0.116438 158.036 2.56141 156.872C7.45137 154.426 11.177 159.434 8.26636 164.325C7.56779 165.606 4.77353 166.188 2.0957 164.209Z" fill="#F46A6A"/>
<path fill-rule="evenodd" clip-rule="evenodd" d="M54.488 164.209C50.8788 161.53 52.5088 158.036 54.9538 156.872C59.8437 154.426 63.5694 159.434 60.6587 164.325C59.9601 165.606 57.2823 166.188 54.488 164.209Z" fill="#F46A6A"/>
<path fill-rule="evenodd" clip-rule="evenodd" d="M106.88 164.209C103.271 161.53 104.901 158.036 107.346 156.872C112.236 154.426 115.962 159.434 113.051 164.325C112.469 165.606 109.675 166.188 106.88 164.209Z" fill="#F46A6A"/>
<path fill-rule="evenodd" clip-rule="evenodd" d="M211.781 164.209C208.172 161.53 209.802 158.036 212.247 156.872C217.137 154.426 220.863 159.434 217.952 164.325C217.254 165.606 214.459 166.188 211.781 164.209Z" fill="#F46A6A"/>
<path fill-rule="evenodd" clip-rule="evenodd" d="M158.341 164.209C154.732 161.53 156.362 158.036 158.807 156.872C163.697 154.426 167.423 159.434 164.512 164.325C163.813 165.606 161.019 166.188 158.341 164.209Z" fill="#F46A6A"/>
<path fill-rule="evenodd" clip-rule="evenodd" d="M2.0957 216.616C-1.51355 213.937 0.116438 210.443 2.56141 209.279C7.45137 206.833 11.177 211.841 8.26636 216.732C7.56779 218.013 4.77353 218.595 2.0957 216.616Z" fill="#F46A6A"/>
<path fill-rule="evenodd" clip-rule="evenodd" d="M54.488 216.616C50.8788 213.937 52.5088 210.443 54.9538 209.279C59.8437 206.833 63.5694 211.841 60.6587 216.732C59.9601 218.013 57.2823 218.595 54.488 216.616Z" fill="#F46A6A"/>
<path fill-rule="evenodd" clip-rule="evenodd" d="M106.88 216.616C103.271 213.937 104.901 210.443 107.346 209.279C112.236 206.833 115.962 211.841 113.051 216.732C112.469 218.013 109.675 218.595 106.88 216.616Z" fill="#F46A6A"/>
<path fill-rule="evenodd" clip-rule="evenodd" d="M211.781 216.616C208.172 213.937 209.802 210.443 212.247 209.279C217.137 206.833 220.863 211.841 217.952 216.732C217.254 218.013 214.459 218.595 211.781 216.616Z" fill="#F46A6A"/>
<path fill-rule="evenodd" clip-rule="evenodd" d="M158.341 216.616C154.732 213.937 156.362 210.443 158.807 209.279C163.697 206.833 167.423 211.841 164.512 216.732C163.813 218.013 161.019 218.595 158.341 216.616Z" fill="#F46A6A"/>
<path fill-rule="evenodd" clip-rule="evenodd" d="M2.0957 269.139C-1.51355 266.46 0.116438 262.967 2.56141 261.802C7.45137 259.356 11.177 264.364 8.26636 269.256C7.56779 270.42 4.77353 271.119 2.0957 269.139Z" fill="#F46A6A"/>
<path fill-rule="evenodd" clip-rule="evenodd" d="M54.488 269.139C50.8788 266.46 52.5088 262.967 54.9538 261.802C59.8437 259.356 63.5694 264.364 60.6587 269.256C59.9601 270.42 57.2823 271.119 54.488 269.139Z" fill="#F46A6A"/>
<path fill-rule="evenodd" clip-rule="evenodd" d="M106.88 269.139C103.271 266.46 104.901 262.967 107.346 261.802C112.236 259.356 115.962 264.364 113.051 269.256C112.469 270.42 109.675 271.119 106.88 269.139Z" fill="#F46A6A"/>
<path fill-rule="evenodd" clip-rule="evenodd" d="M211.781 269.139C208.172 266.46 209.802 262.967 212.247 261.802C217.137 259.356 220.863 264.364 217.952 269.256C217.254 270.42 214.459 271.119 211.781 269.139Z" fill="#F46A6A"/>
<path fill-rule="evenodd" clip-rule="evenodd" d="M158.341 269.139C154.732 266.46 156.362 262.967 158.807 261.802C163.697 259.356 167.423 264.364 164.512 269.256C163.813 270.42 161.019 271.119 158.341 269.139Z" fill="#F46A6A"/>
<path fill-rule="evenodd" clip-rule="evenodd" d="M2.0957 320.498C-1.51355 317.819 0.116438 314.326 2.56141 313.161C7.45137 310.715 11.177 315.723 8.26636 320.614C7.56779 321.779 4.77353 322.478 2.0957 320.498Z" fill="#F46A6A"/>
<path fill-rule="evenodd" clip-rule="evenodd" d="M54.488 320.498C50.8788 317.819 52.5088 314.326 54.9538 313.161C59.8437 310.715 63.5694 315.723 60.6587 320.614C59.9601 321.779 57.2823 322.478 54.488 320.498Z" fill="#F46A6A"/>
<path fill-rule="evenodd" clip-rule="evenodd" d="M106.88 320.498C103.271 317.819 104.901 314.326 107.346 313.161C112.236 310.715 115.962 315.723 113.051 320.614C112.469 321.779 109.675 322.478 106.88 320.498Z" fill="#F46A6A"/>
<path fill-rule="evenodd" clip-rule="evenodd" d="M211.781 320.498C208.172 317.819 209.802 314.326 212.247 313.161C217.137 310.715 220.863 315.723 217.952 320.614C217.254 321.779 214.459 322.478 211.781 320.498Z" fill="#F46A6A"/>
<path fill-rule="evenodd" clip-rule="evenodd" d="M158.341 320.498C154.732 317.819 156.362 314.326 158.807 313.161C163.697 310.715 167.423 315.723 164.512 320.614C163.813 321.779 161.019 322.478 158.341 320.498Z" fill="#F46A6A"/>
<path fill-rule="evenodd" clip-rule="evenodd" d="M2.0957 372.905C-1.51355 370.226 0.116438 366.733 2.56141 365.568C7.45137 363.122 11.177 368.13 8.26636 373.021C7.56779 374.302 4.77353 374.885 2.0957 372.905Z" fill="#F46A6A"/>
<path fill-rule="evenodd" clip-rule="evenodd" d="M54.488 372.905C50.8788 370.226 52.5088 366.733 54.9538 365.568C59.8437 363.122 63.5694 368.13 60.6587 373.021C59.9601 374.302 57.2823 374.885 54.488 372.905Z" fill="#F46A6A"/>
<path fill-rule="evenodd" clip-rule="evenodd" d="M106.88 372.905C103.271 370.226 104.901 366.733 107.346 365.568C112.236 363.122 115.962 368.13 113.051 373.021C112.469 374.302 109.675 374.885 106.88 372.905Z" fill="#F46A6A"/>
<path fill-rule="evenodd" clip-rule="evenodd" d="M211.781 372.905C208.172 370.226 209.802 366.733 212.247 365.568C217.137 363.122 220.863 368.13 217.952 373.021C217.254 374.302 214.459 374.885 211.781 372.905Z" fill="#F46A6A"/>
<path fill-rule="evenodd" clip-rule="evenodd" d="M158.341 372.905C154.732 370.226 156.362 366.733 158.807 365.568C163.697 363.122 167.423 368.13 164.512 373.021C163.813 374.302 161.019 374.885 158.341 372.905Z" fill="#F46A6A"/>
<path fill-rule="evenodd" clip-rule="evenodd" d="M2.0957 425.312C-1.51355 422.633 0.116438 419.14 2.56141 417.975C7.45137 415.529 11.177 420.537 8.26636 425.428C7.56779 426.709 4.77353 427.292 2.0957 425.312Z" fill="#F46A6A"/>
<path fill-rule="evenodd" clip-rule="evenodd" d="M54.488 425.312C50.8788 422.633 52.5088 419.14 54.9538 417.975C59.8437 415.529 63.5694 420.537 60.6587 425.428C59.9601 426.709 57.2823 427.292 54.488 425.312Z" fill="#F46A6A"/>
<path fill-rule="evenodd" clip-rule="evenodd" d="M106.88 425.312C103.271 422.633 104.901 419.14 107.346 417.975C112.236 415.529 115.962 420.537 113.051 425.428C112.469 426.709 109.675 427.292 106.88 425.312Z" fill="#F46A6A"/>
<path fill-rule="evenodd" clip-rule="evenodd" d="M211.781 425.312C208.172 422.633 209.802 419.14 212.247 417.975C217.137 415.529 220.863 420.537 217.952 425.428C217.254 426.709 214.459 427.292 211.781 425.312Z" fill="#F46A6A"/>
<path fill-rule="evenodd" clip-rule="evenodd" d="M158.341 425.312C154.732 422.633 156.362 419.14 158.807 417.975C163.697 415.529 167.423 420.537 164.512 425.428C163.813 426.709 161.019 427.292 158.341 425.312Z" fill="#F46A6A"/>
<path fill-rule="evenodd" clip-rule="evenodd" d="M2.0957 477.719C-1.51355 475.04 0.116438 471.547 2.56141 470.382C7.45137 467.936 11.177 472.944 8.26636 477.835C7.56779 479.116 4.77353 479.699 2.0957 477.719Z" fill="#F46A6A"/>
<path fill-rule="evenodd" clip-rule="evenodd" d="M54.488 477.719C50.8788 475.04 52.5088 471.547 54.9538 470.382C59.8437 467.936 63.5694 472.944 60.6587 477.835C59.9601 479.116 57.2823 479.699 54.488 477.719Z" fill="#F46A6A"/>
<path fill-rule="evenodd" clip-rule="evenodd" d="M106.88 477.719C103.271 475.04 104.901 471.547 107.346 470.382C112.236 467.936 115.962 472.944 113.051 477.835C112.469 479.116 109.675 479.699 106.88 477.719Z" fill="#F46A6A"/>
<path fill-rule="evenodd" clip-rule="evenodd" d="M211.781 477.719C208.172 475.04 209.802 471.547 212.247 470.382C217.137 467.936 220.863 472.944 217.952 477.835C217.254 479.116 214.459 479.699 211.781 477.719Z" fill="#F46A6A"/>
<path fill-rule="evenodd" clip-rule="evenodd" d="M158.341 477.719C154.732 475.04 156.362 471.547 158.807 470.382C163.697 467.936 167.423 472.944 164.512 477.835C163.813 479.116 161.019 479.699 158.341 477.719Z" fill="#F46A6A"/>
</g>
<defs>
<clipPath id="clip0">
<rect width="219" height="479" fill="white"/>
</clipPath>
</defs>
</svg>
