<svg width="1920" height="1333" viewBox="0 0 1920 1333" fill="none" xmlns="http://www.w3.org/2000/svg">
<path d="M1607.48 1097.56C1708.58 1083.42 1773.67 1018.16 1799.3 906.575L2073.31 -259.288C2087.5 -334.714 2079.21 -394.035 2043.79 -440.923C2008.37 -487.812 1952.83 -501.646 1880.04 -491.467C1835.56 -485.247 1804.99 -468.011 1779.64 -442.866C1754.3 -417.721 1735.96 -371.956 1724.03 -309.807L1525.54 629.49L1105.16 70.5021C1060.95 -9.71866 997.821 -48.4112 916.941 -37.1011C836.062 -25.7911 785.371 24.4984 765.463 118.004L523.225 773.973L68.2698 -91.2279C40.3471 -143.484 10.7503 -178.227 -24.5641 -194.889C-59.8785 -211.551 -93.4152 -215.501 -129.811 -210.412C-202.603 -200.233 -243.531 -168.589 -256.048 -110.677C-269.158 -57.0028 -260.862 2.31856 -227.118 66.7213L351.557 1109.03C406.81 1209.3 487.304 1254.21 588.404 1240.07C693.547 1225.37 754.591 1160.67 780.218 1049.08L1015.38 519.387L1374.09 961.716C1425.89 1066.79 1506.39 1111.7 1607.48 1097.56Z" fill="#FEF5F5"/>
</svg>
