<svg width="219" height="490" viewBox="0 0 219 490" fill="none" xmlns="http://www.w3.org/2000/svg">
<g clip-path="url(#clip0)">
<path fill-rule="evenodd" clip-rule="evenodd" d="M2.09566 9.00319C-1.51359 6.26893 0.116396 2.7025 2.56137 1.51369C7.45132 -0.982805 11.177 4.12907 8.26632 9.12207C7.56775 10.3109 4.77349 11.0242 2.09566 9.00319Z" fill="white"/>
<path fill-rule="evenodd" clip-rule="evenodd" d="M54.488 9.00319C50.8787 6.26893 52.5087 2.7025 54.9537 1.51369C59.8437 -0.982805 63.5693 4.12907 60.6586 9.12207C59.9601 10.3109 57.2823 11.0242 54.488 9.00319Z" fill="white"/>
<path fill-rule="evenodd" clip-rule="evenodd" d="M106.88 9.00319C103.271 6.26893 104.901 2.7025 107.346 1.51369C112.236 -0.982805 115.962 4.12907 113.051 9.12207C112.469 10.3109 109.675 11.0242 106.88 9.00319Z" fill="white"/>
<path fill-rule="evenodd" clip-rule="evenodd" d="M211.781 9.00319C208.172 6.26893 209.802 2.7025 212.247 1.51369C217.137 -0.982805 220.863 4.12907 217.952 9.12207C217.254 10.3109 214.459 11.0242 211.781 9.00319Z" fill="white"/>
<path fill-rule="evenodd" clip-rule="evenodd" d="M158.341 9.00319C154.732 6.26893 156.362 2.7025 158.807 1.51369C163.697 -0.982805 167.423 4.12907 164.512 9.12207C163.813 10.3109 161.019 11.0242 158.341 9.00319Z" fill="white"/>
<path fill-rule="evenodd" clip-rule="evenodd" d="M2.09566 62.4996C-1.51359 59.7653 0.116396 56.1989 2.56137 55.0101C7.45132 52.5136 11.177 57.6255 8.26632 62.6185C7.56775 63.9262 4.77349 64.5206 2.09566 62.4996Z" fill="white"/>
<path fill-rule="evenodd" clip-rule="evenodd" d="M54.488 62.4996C50.8787 59.7653 52.5087 56.1989 54.9537 55.0101C59.8437 52.5136 63.5693 57.6255 60.6586 62.6185C59.9601 63.9262 57.2823 64.5206 54.488 62.4996Z" fill="white"/>
<path fill-rule="evenodd" clip-rule="evenodd" d="M106.88 62.4996C103.271 59.7653 104.901 56.1989 107.346 55.0101C112.236 52.5136 115.962 57.6255 113.051 62.6185C112.469 63.9262 109.675 64.5206 106.88 62.4996Z" fill="white"/>
<path fill-rule="evenodd" clip-rule="evenodd" d="M211.781 62.4996C208.172 59.7653 209.802 56.1989 212.247 55.0101C217.137 52.5136 220.863 57.6255 217.952 62.6185C217.254 63.9262 214.459 64.5206 211.781 62.4996Z" fill="white"/>
<path fill-rule="evenodd" clip-rule="evenodd" d="M158.341 62.4996C154.732 59.7653 156.362 56.1989 158.807 55.0101C163.697 52.5136 167.423 57.6255 164.512 62.6185C163.813 63.9262 161.019 64.5206 158.341 62.4996Z" fill="white"/>
<path fill-rule="evenodd" clip-rule="evenodd" d="M2.09566 114.926C-1.51359 112.192 0.116396 108.625 2.56137 107.437C7.45132 104.94 11.177 110.052 8.26632 115.045C7.56775 116.353 4.77349 116.947 2.09566 114.926Z" fill="white"/>
<path fill-rule="evenodd" clip-rule="evenodd" d="M54.488 114.926C50.8787 112.192 52.5087 108.625 54.9537 107.437C59.8437 104.94 63.5693 110.052 60.6586 115.045C59.9601 116.353 57.2823 116.947 54.488 114.926Z" fill="white"/>
<path fill-rule="evenodd" clip-rule="evenodd" d="M106.88 114.926C103.271 112.192 104.901 108.625 107.346 107.437C112.236 104.94 115.962 110.052 113.051 115.045C112.469 116.353 109.675 116.947 106.88 114.926Z" fill="white"/>
<path fill-rule="evenodd" clip-rule="evenodd" d="M211.781 114.926C208.172 112.192 209.802 108.625 212.247 107.437C217.137 104.94 220.863 110.052 217.952 115.045C217.254 116.353 214.459 116.947 211.781 114.926Z" fill="white"/>
<path fill-rule="evenodd" clip-rule="evenodd" d="M158.341 114.926C154.732 112.192 156.362 108.625 158.807 107.437C163.697 104.94 167.423 110.052 164.512 115.045C163.813 116.353 161.019 116.947 158.341 114.926Z" fill="white"/>
<path fill-rule="evenodd" clip-rule="evenodd" d="M2.09566 168.423C-1.51359 165.688 0.116396 162.122 2.56137 160.933C7.45132 158.437 11.177 163.548 8.26632 168.541C7.56775 169.849 4.77349 170.443 2.09566 168.423Z" fill="white"/>
<path fill-rule="evenodd" clip-rule="evenodd" d="M54.488 168.423C50.8787 165.688 52.5087 162.122 54.9537 160.933C59.8437 158.437 63.5693 163.548 60.6586 168.541C59.9601 169.849 57.2823 170.443 54.488 168.423Z" fill="white"/>
<path fill-rule="evenodd" clip-rule="evenodd" d="M106.88 168.423C103.271 165.688 104.901 162.122 107.346 160.933C112.236 158.437 115.962 163.548 113.051 168.541C112.469 169.849 109.675 170.443 106.88 168.423Z" fill="white"/>
<path fill-rule="evenodd" clip-rule="evenodd" d="M211.781 168.423C208.172 165.688 209.802 162.122 212.247 160.933C217.137 158.437 220.863 163.548 217.952 168.541C217.254 169.849 214.459 170.443 211.781 168.423Z" fill="white"/>
<path fill-rule="evenodd" clip-rule="evenodd" d="M158.341 168.423C154.732 165.688 156.362 162.122 158.807 160.933C163.697 158.437 167.423 163.548 164.512 168.541C163.813 169.849 161.019 170.443 158.341 168.423Z" fill="white"/>
<path fill-rule="evenodd" clip-rule="evenodd" d="M2.09566 221.919C-1.51359 219.185 0.116396 215.618 2.56137 214.429C7.45132 211.933 11.177 217.045 8.26632 222.038C7.56775 223.345 4.77349 223.94 2.09566 221.919Z" fill="white"/>
<path fill-rule="evenodd" clip-rule="evenodd" d="M54.488 221.919C50.8787 219.185 52.5087 215.618 54.9537 214.429C59.8437 211.933 63.5693 217.045 60.6586 222.038C59.9601 223.345 57.2823 223.94 54.488 221.919Z" fill="white"/>
<path fill-rule="evenodd" clip-rule="evenodd" d="M106.88 221.919C103.271 219.185 104.901 215.618 107.346 214.429C112.236 211.933 115.962 217.045 113.051 222.038C112.469 223.345 109.675 223.94 106.88 221.919Z" fill="white"/>
<path fill-rule="evenodd" clip-rule="evenodd" d="M211.781 221.919C208.172 219.185 209.802 215.618 212.247 214.429C217.137 211.933 220.863 217.045 217.952 222.038C217.254 223.345 214.459 223.94 211.781 221.919Z" fill="white"/>
<path fill-rule="evenodd" clip-rule="evenodd" d="M158.341 221.919C154.732 219.185 156.362 215.618 158.807 214.429C163.697 211.933 167.423 217.045 164.512 222.038C163.813 223.345 161.019 223.94 158.341 221.919Z" fill="white"/>
<path fill-rule="evenodd" clip-rule="evenodd" d="M2.09566 275.534C-1.51359 272.8 0.116396 269.233 2.56137 268.045C7.45132 265.548 11.177 270.66 8.26632 275.653C7.56775 276.842 4.77349 277.555 2.09566 275.534Z" fill="white"/>
<path fill-rule="evenodd" clip-rule="evenodd" d="M54.488 275.534C50.8787 272.8 52.5087 269.233 54.9537 268.045C59.8437 265.548 63.5693 270.66 60.6586 275.653C59.9601 276.842 57.2823 277.555 54.488 275.534Z" fill="white"/>
<path fill-rule="evenodd" clip-rule="evenodd" d="M106.88 275.534C103.271 272.8 104.901 269.233 107.346 268.045C112.236 265.548 115.962 270.66 113.051 275.653C112.469 276.842 109.675 277.555 106.88 275.534Z" fill="white"/>
<path fill-rule="evenodd" clip-rule="evenodd" d="M211.781 275.534C208.172 272.8 209.802 269.233 212.247 268.045C217.137 265.548 220.863 270.66 217.952 275.653C217.254 276.842 214.459 277.555 211.781 275.534Z" fill="white"/>
<path fill-rule="evenodd" clip-rule="evenodd" d="M158.341 275.534C154.732 272.8 156.362 269.233 158.807 268.045C163.697 265.548 167.423 270.66 164.512 275.653C163.813 276.842 161.019 277.555 158.341 275.534Z" fill="white"/>
<path fill-rule="evenodd" clip-rule="evenodd" d="M2.09566 327.961C-1.51359 325.226 0.116396 321.66 2.56137 320.471C7.45132 317.975 11.177 323.087 8.26632 328.08C7.56775 329.268 4.77349 329.982 2.09566 327.961Z" fill="white"/>
<path fill-rule="evenodd" clip-rule="evenodd" d="M54.488 327.961C50.8787 325.226 52.5087 321.66 54.9537 320.471C59.8437 317.975 63.5693 323.087 60.6586 328.08C59.9601 329.268 57.2823 329.982 54.488 327.961Z" fill="white"/>
<path fill-rule="evenodd" clip-rule="evenodd" d="M106.88 327.961C103.271 325.226 104.901 321.66 107.346 320.471C112.236 317.975 115.962 323.087 113.051 328.08C112.469 329.268 109.675 329.982 106.88 327.961Z" fill="white"/>
<path fill-rule="evenodd" clip-rule="evenodd" d="M211.781 327.961C208.172 325.226 209.802 321.66 212.247 320.471C217.137 317.975 220.863 323.087 217.952 328.08C217.254 329.268 214.459 329.982 211.781 327.961Z" fill="white"/>
<path fill-rule="evenodd" clip-rule="evenodd" d="M158.341 327.961C154.732 325.226 156.362 321.66 158.807 320.471C163.697 317.975 167.423 323.087 164.512 328.08C163.813 329.268 161.019 329.982 158.341 327.961Z" fill="white"/>
<path fill-rule="evenodd" clip-rule="evenodd" d="M2.09566 381.457C-1.51359 378.723 0.116396 375.156 2.56137 373.968C7.45132 371.471 11.177 376.583 8.26632 381.576C7.56775 382.884 4.77349 383.478 2.09566 381.457Z" fill="white"/>
<path fill-rule="evenodd" clip-rule="evenodd" d="M54.488 381.457C50.8787 378.723 52.5087 375.156 54.9537 373.968C59.8437 371.471 63.5693 376.583 60.6586 381.576C59.9601 382.884 57.2823 383.478 54.488 381.457Z" fill="white"/>
<path fill-rule="evenodd" clip-rule="evenodd" d="M106.88 381.457C103.271 378.723 104.901 375.156 107.346 373.968C112.236 371.471 115.962 376.583 113.051 381.576C112.469 382.884 109.675 383.478 106.88 381.457Z" fill="white"/>
<path fill-rule="evenodd" clip-rule="evenodd" d="M211.781 381.457C208.172 378.723 209.802 375.156 212.247 373.968C217.137 371.471 220.863 376.583 217.952 381.576C217.254 382.884 214.459 383.478 211.781 381.457Z" fill="white"/>
<path fill-rule="evenodd" clip-rule="evenodd" d="M158.341 381.457C154.732 378.723 156.362 375.156 158.807 373.968C163.697 371.471 167.423 376.583 164.512 381.576C163.813 382.884 161.019 383.478 158.341 381.457Z" fill="white"/>
<path fill-rule="evenodd" clip-rule="evenodd" d="M2.09566 434.953C-1.51359 432.219 0.116396 428.653 2.56137 427.464C7.45132 424.967 11.177 430.079 8.26632 435.072C7.56775 436.38 4.77349 436.974 2.09566 434.953Z" fill="white"/>
<path fill-rule="evenodd" clip-rule="evenodd" d="M54.488 434.953C50.8787 432.219 52.5087 428.653 54.9537 427.464C59.8437 424.967 63.5693 430.079 60.6586 435.072C59.9601 436.38 57.2823 436.974 54.488 434.953Z" fill="white"/>
<path fill-rule="evenodd" clip-rule="evenodd" d="M106.88 434.953C103.271 432.219 104.901 428.653 107.346 427.464C112.236 424.967 115.962 430.079 113.051 435.072C112.469 436.38 109.675 436.974 106.88 434.953Z" fill="white"/>
<path fill-rule="evenodd" clip-rule="evenodd" d="M211.781 434.953C208.172 432.219 209.802 428.653 212.247 427.464C217.137 424.967 220.863 430.079 217.952 435.072C217.254 436.38 214.459 436.974 211.781 434.953Z" fill="white"/>
<path fill-rule="evenodd" clip-rule="evenodd" d="M158.341 434.953C154.732 432.219 156.362 428.653 158.807 427.464C163.697 424.967 167.423 430.079 164.512 435.072C163.813 436.38 161.019 436.974 158.341 434.953Z" fill="white"/>
<path fill-rule="evenodd" clip-rule="evenodd" d="M2.09566 488.45C-1.51359 485.716 0.116396 482.149 2.56137 480.96C7.45132 478.464 11.177 483.576 8.26632 488.569C7.56775 489.876 4.77349 490.471 2.09566 488.45Z" fill="white"/>
<path fill-rule="evenodd" clip-rule="evenodd" d="M54.488 488.45C50.8787 485.716 52.5087 482.149 54.9537 480.96C59.8437 478.464 63.5693 483.576 60.6586 488.569C59.9601 489.876 57.2823 490.471 54.488 488.45Z" fill="white"/>
<path fill-rule="evenodd" clip-rule="evenodd" d="M106.88 488.45C103.271 485.716 104.901 482.149 107.346 480.96C112.236 478.464 115.962 483.576 113.051 488.569C112.469 489.876 109.675 490.471 106.88 488.45Z" fill="white"/>
<path fill-rule="evenodd" clip-rule="evenodd" d="M211.781 488.45C208.172 485.716 209.802 482.149 212.247 480.96C217.137 478.464 220.863 483.576 217.952 488.569C217.254 489.876 214.459 490.471 211.781 488.45Z" fill="white"/>
<path fill-rule="evenodd" clip-rule="evenodd" d="M158.341 488.45C154.732 485.716 156.362 482.149 158.807 480.96C163.697 478.464 167.423 483.576 164.512 488.569C163.813 489.876 161.019 490.471 158.341 488.45Z" fill="white"/>
</g>
<defs>
<clipPath id="clip0">
<rect width="219" height="488.957" fill="white" transform="translate(0 0.800415)"/>
</clipPath>
</defs>
</svg>
